<svg width="109" height="33" viewBox="0 0 109 33" fill="none" xmlns="http://www.w3.org/2000/svg">
<path d="M106.748 13.4439C106.249 14.1194 105.152 14.6877 104.323 14.6271C103.834 14.5899 103.592 14.2545 103.806 13.8282C105.7 10.0131 106.648 6.5822 103.685 6.93624C102.399 7.09229 100.773 8.66214 100.599 13.565C100.543 15.086 99.6322 16.4113 98.824 17.2241C98.2475 17.8463 97.4966 18.2799 96.6695 18.4679C95.8356 18.6379 95.3232 18.2094 95.3768 17.3685C95.4467 16.2808 95.8077 15.2723 96.178 14.2568C96.8768 12.3306 98.1671 8.58528 98.9031 6.67071H95.8939C95.3931 7.96339 94.3427 11.0798 93.8605 12.3818C93.425 13.5674 93.0453 14.7762 92.3838 15.8756C91.8714 16.7234 91.3217 17.5409 90.4972 18.1255C90.3274 18.2655 90.1314 18.3703 89.9207 18.4339C89.7099 18.4975 89.4887 18.5186 89.2697 18.4959C88.7387 18.4143 88.4685 18.0067 88.5058 17.3313C88.592 15.7498 89.0019 14.2335 89.491 12.7452C89.9568 11.3104 91.012 8.07286 91.5873 6.6777H88.6502C88.1378 8.02628 87.1269 11.2102 86.6704 12.5775C86.3653 13.5091 85.9367 14.2987 85.1867 14.9066C84.7815 15.2397 84.3506 15.5145 83.7892 15.4586C83.5936 15.4423 83.4841 15.3818 83.5843 15.1628C83.6169 15.0929 83.6262 15.0114 83.6565 14.9299C84.236 13.5124 84.4622 11.9753 84.3156 10.4509C84.2456 9.48007 83.8595 8.55887 83.2163 7.8283C82.0144 6.50068 79.9554 6.26311 78.2388 7.22505C76.794 8.06505 75.6018 9.27822 74.787 10.7374C74.242 11.6691 73.8554 12.6916 73.3523 13.6512C72.6908 14.9451 71.8503 16.1393 70.8554 17.1985C70.3818 17.7416 69.7886 18.1673 69.1225 18.4423C68.7545 18.5774 68.5495 18.4982 68.4634 18.1209C68.4052 17.8703 68.4052 17.6098 68.4634 17.3592C68.7219 16.367 68.9758 15.3701 69.3065 14.4035C69.7444 13.1225 70.2545 11.8671 70.7296 10.6C71.6823 8.07519 72.6512 5.5597 73.5735 3.02791C73.9369 2.03103 74.2187 1.00853 74.5332 0H71.6753C70.8275 2.36643 69.9796 4.73518 69.1132 7.09462C68.7219 8.15904 68.3143 9.21881 67.9044 10.2763C66.3671 14.0891 65.4448 14.5107 60.7748 17.8926C61.6133 15.6007 62.5147 11.3826 62.5147 11.3826C66.1715 8.93698 68.0208 6.24215 68.0208 3.35632C68.0208 1.67234 67.0216 0.398283 65.5356 0.18633C63.854 -0.046586 61.7228 1.18554 60.7562 4.49761C60.3998 5.71343 60.1669 7.58607 59.948 9.81275C57.8131 11.0644 55.5482 12.0797 53.1934 12.8407L53.997 15.4214C55.8913 14.7669 57.7355 13.9752 59.5147 13.0526C58.8533 15.5704 57.8843 19.3087 57.8843 19.3087L57.7609 19.3507C51.6818 21.4748 49.865 26.5128 50.5172 29.4103C50.9131 31.1758 52.1709 32.2589 53.778 32.2565C53.9095 32.2564 54.0409 32.2494 54.1716 32.2356C57.8494 31.8443 59.4495 27.0462 60.3509 21.207C62.2439 20.3099 64.0119 19.1699 65.6101 17.8157C65.6031 18.4589 65.7714 19.0918 66.0969 19.6465C66.9937 21.1394 68.4261 21.6239 70.0565 21.044C71.1442 20.6643 72.013 19.9679 72.8096 19.169L73.2754 18.7031C73.8484 19.7979 74.1512 20.2288 74.6869 20.5851C76.1612 21.5657 77.6682 21.4772 79.1705 20.6527C80.2752 20.0204 81.2209 19.1441 81.9352 18.0906C81.9649 18.0319 82.0061 17.9798 82.0564 17.9374C82.1066 17.8951 82.1649 17.8632 82.2277 17.8439C82.2906 17.8245 82.3567 17.8181 82.4221 17.8248C82.4874 17.8316 82.5508 17.8515 82.6083 17.8833C82.9366 17.9947 83.2766 18.0681 83.6215 18.1022C84.3319 18.1907 84.9981 18.0044 85.6991 17.7133C85.7481 18.0533 85.776 18.3608 85.8319 18.6636C86.0206 19.6535 86.4864 20.464 87.4367 20.8879C88.7154 21.4516 90.0151 21.4748 91.2635 20.8064C91.8255 20.4682 92.3697 20.1012 92.8939 19.707C92.8799 19.707 92.9125 19.707 92.9382 19.7303C92.9712 19.76 92.9994 19.7946 93.022 19.8328C93.5647 20.8227 94.4661 21.2023 95.5259 21.2792C97.0724 21.391 98.3628 20.7435 99.546 19.8328C100.597 19.0049 101.496 17.9999 102.201 16.8631C102.343 16.6302 102.464 16.6302 102.69 16.7536C103.075 16.9493 105.686 18.4376 109 14.8391L106.748 13.4439ZM63.3462 5.24992C63.8936 3.38659 64.7996 2.85089 65.1164 2.85089H65.1513C65.2445 2.86486 65.3143 3.08381 65.3167 3.34933C65.3167 4.91686 64.3338 6.37724 62.9013 7.67225C62.9923 6.85533 63.141 6.04586 63.3462 5.24992ZM57.0179 24.1161C56.2097 27.4957 55.0917 29.4289 53.8689 29.5594C53.6895 29.578 53.3168 29.6176 53.1398 28.828C52.7625 27.1487 53.9015 24.1697 57.3742 22.4414C57.2648 23.0074 57.1483 23.5688 57.0179 24.1045V24.1161ZM80.186 10.9843C79.1822 11.5084 78.8025 12.4098 78.8514 13.4975C78.8954 14.3097 79.1945 15.0872 79.7062 15.7195C79.7584 15.7685 79.8 15.8277 79.8284 15.8934C79.8568 15.9591 79.8715 16.0299 79.8715 16.1015C79.8715 16.1731 79.8568 16.2439 79.8284 16.3096C79.8 16.3753 79.7584 16.4345 79.7062 16.4835C79.1542 17.1822 78.5999 17.881 77.7823 18.2792C77.5639 18.3913 77.3273 18.4639 77.0836 18.4935C76.4524 18.5564 76.0192 18.2024 75.8654 17.5852C75.6974 16.8255 75.7118 16.0369 75.9074 15.2839C76.2705 13.6709 77.014 12.1679 78.0758 10.9005C78.5033 10.3331 79.063 9.87894 79.7062 9.5775C79.9626 9.46815 80.2409 9.42029 80.5191 9.43775C81.1363 9.50064 81.3902 9.81274 81.4927 10.4975C81.0468 10.6269 80.6103 10.7864 80.186 10.975V10.9843Z" fill="#FF5E20"/>
<path d="M13.8538 20.6643H11.5992L8.89506 12.7452L6.19091 20.6643H3.93861L0 8.85083H2.46658L5.14744 17.0355L7.9238 8.85083H9.86865L12.6427 17.0355L15.3235 8.85083H17.7924L13.8538 20.6643Z" fill="white"/>
<path d="M29.0882 15.3284H19.5527C19.6176 16.2928 20.0404 17.1982 20.7382 17.8672C21.3735 18.4807 22.2238 18.821 23.107 18.8151C24.7374 18.8151 25.8919 18.135 26.5704 16.7748L28.7761 17.2406C28.3681 18.3775 27.5971 19.3483 26.5821 20.003C25.5374 20.6413 24.3308 20.9647 23.107 20.9347C22.322 20.9472 21.5426 20.8013 20.8154 20.5055C20.0883 20.2097 19.4282 19.7703 18.8749 19.2134C17.6963 18.0581 17.1078 16.5714 17.1094 14.7531C17.1109 12.9348 17.6994 11.4363 18.8749 10.2578C19.4412 9.68961 20.117 9.24226 20.8612 8.9428C21.6055 8.64334 22.4027 8.498 23.2048 8.51558C23.9653 8.50324 24.7204 8.64552 25.4243 8.93379C26.1281 9.22207 26.7661 9.65032 27.2994 10.1926C28.4283 11.3059 29.0254 12.7329 29.0906 14.4736L29.0882 15.3284ZM20.9362 11.462C20.2404 11.9661 19.7716 12.7244 19.6319 13.5722H26.5588C26.4283 12.7425 26.0083 11.9859 25.3732 11.4363C24.7631 10.9439 23.998 10.6839 23.2141 10.7027C22.3893 10.6996 21.5861 10.9663 20.9269 11.462H20.9362Z" fill="white"/>
<path d="M42.307 20.6108H39.8148V19.1644C38.7714 20.3507 37.3483 20.9439 35.5455 20.9439C34.7775 20.9488 34.0167 20.7954 33.3106 20.4932C32.6045 20.1911 31.9682 19.7467 31.4415 19.1877C30.2893 18.0154 29.7125 16.5286 29.7109 14.7274C29.7094 12.9261 30.2862 11.4394 31.4415 10.267C31.9679 9.70782 32.6042 9.26339 33.3104 8.96159C34.0166 8.65978 34.7775 8.50712 35.5455 8.51317C37.3312 8.51317 38.7543 9.10633 39.8148 10.2926V2.35254H42.307V20.6108ZM38.6526 17.6528C39.429 16.909 39.8172 15.9362 39.8172 14.7344C39.8362 14.1954 39.7425 13.6585 39.5419 13.1579C39.3414 12.6574 39.0385 12.2042 38.6526 11.8276C38.2999 11.4689 37.8789 11.1845 37.4144 10.9913C36.95 10.798 36.4515 10.6999 35.9484 10.7026C35.4415 10.689 34.9372 10.781 34.4677 10.9726C33.9982 11.1643 33.5736 11.4515 33.221 11.8159C32.4943 12.5581 32.1309 13.531 32.1309 14.7344C32.1309 15.9377 32.4943 16.9144 33.221 17.6644C33.5751 18.0263 34.0002 18.3111 34.4695 18.5011C34.9388 18.6911 35.4423 18.7821 35.9484 18.7685C36.4507 18.7713 36.9484 18.6742 37.4127 18.4826C37.877 18.2911 38.2985 18.009 38.6526 17.6528Z" fill="white"/>
<path d="M53.8108 10.3112C55.0204 11.4572 55.6252 12.9323 55.6252 14.7366C55.6252 16.541 55.0166 18.02 53.7992 19.1737C53.2059 19.7411 52.5066 20.186 51.7413 20.4829C50.9759 20.7798 50.1596 20.923 49.3388 20.9043C47.6706 20.944 46.0545 20.3219 44.8436 19.1737C43.6184 18.0184 43.0059 16.5394 43.0059 14.7366C43.0059 12.9339 43.6184 11.4587 44.8436 10.3112C46.0566 9.16754 47.6721 8.54896 49.3388 8.58999C50.1608 8.56869 50.9789 8.70977 51.7463 9.00512C52.5137 9.30048 53.2153 9.74433 53.8108 10.3112ZM52.0663 17.6411C52.8152 16.8568 53.2331 15.8141 53.2331 14.7296C53.2331 13.6452 52.8152 12.6025 52.0663 11.8182C51.3342 11.097 50.3478 10.6928 49.3202 10.6928C48.2926 10.6928 47.3062 11.097 46.5741 11.8182C45.832 12.606 45.4188 13.6474 45.4188 14.7296C45.4188 15.8119 45.832 16.8533 46.5741 17.6411C47.3056 18.3634 48.2922 18.7684 49.3202 18.7684C50.3482 18.7684 51.3348 18.3634 52.0663 17.6411Z" fill="white"/>
</svg>
